:SAMPLES-PER-SECOND 30
:FULLY-SPECIFIED
:DEGREES
280
root  -25.2411 31.7614 22.0124 172.956 -22.9621 173.196
RightUpLeg  -42.7583 -4.36718 6.12382
RightLeg  73.1695 -4.94292 -18.9759
RightFoot  -19.4795 -0.904262 -10.7159
RightToes  0.000482159 0.542163 -0.142577
Spine  54.3403 -1.94203 2.51501
Spine1  -7.31398 -0.0787406 -9.1883
HEad  -65.4111 -40.2896 29.7591
LeftShoulder1  6.01792 -11.5245 -34.0084
LeftArm  -42.2151 64.2693 -20.5664
LeftForeArm  47.4249 -61.6329 -16.2685
LeftHand  -0.25398 0.0180481 5.50724
RightShoulder  6.89766 10.2256 43.8257
RightArm  5.16202 50.4539 36.0376
RightForeArm  14.1829 55.1042 15.0592
RightHand  -1.54735 4.07663 -19.1477
LeftUpLeg  -38.6595 24.1574 15.5091
LeftLeg  88.2151 -0.413425 7.55058
LeftFoot  -4.03428 0.121312 -1.56008
LeftToes  1.06246e-005 4.65855e-005 -8.18502e-006
281
root  -27.0057 31.8828 21.8013 173.435 -20.4514 171.995
RightUpLeg  -42.0408 -3.75488 2.16461
RightLeg  74.7252 -3.80169 -16.7732
RightFoot  -21.1872 -0.9751 -9.62115
RightToes  0.000482159 0.542163 -0.142577
Spine  54.8622 -0.909434 0.106992
Spine1  -7.54524 0.201159 -11.1377
HEad  -67.0761 -41.1629 31.6095
LeftShoulder1  5.58798 -10.9763 -32.5551
LeftArm  -46.2404 63.1982 -22.0279
LeftForeArm  48.3128 -65.2886 -19.5689
LeftHand  -0.25398 0.0180481 5.50724
RightShoulder  6.67832 10.1756 42.5166
RightArm  16.3815 54.861 49.1254
RightForeArm  20.3613 58.4273 16.6948
RightHand  -1.28167 3.34764 -17.2383
LeftUpLeg  -37.2052 22.1546 21.109
LeftLeg  69.5567 0.594784 3.17583
LeftFoot  -3.04581 0.243606 -3.17184
LeftToes  1.06246e-005 4.65855e-005 -8.18502e-006
282
root  -28.8154 31.9116 21.6369 173.84 -18.0861 172.335
RightUpLeg  -42.4086 -2.71334 -0.527844
RightLeg  76.3697 -2.98023 -15.4155
RightFoot  -22.5066 -0.91149 -7.77333
RightToes  0.000482159 0.542163 -0.142577
Spine  55.0013 -0.513618 -0.939555
Spine1  -7.84694 0.262506 -12.7334
HEad  -67.363 -42.2353 32.5946
LeftShoulder1  5.35313 -10.5624 -32.0152
LeftArm  -46.9205 59.7747 -21.1132
LeftForeArm  51.551 -70.2982 -26.0535
LeftHand  -0.25398 0.0180481 5.50724
RightShoulder  6.58062 10.2926 41.4709
RightArm  28.0555 55.9316 61.864
RightForeArm  25.5897 62.9967 20.0326
RightHand  -1.24082 3.28574 -16.8056
LeftUpLeg  -33.543 18.2407 26.1519
LeftLeg  49.5796 -1.48449 -1.59938
LeftFoot  -3.61498 0.622778 -8.87714
LeftToes  1.06246e-005 4.65855e-005 -8.18502e-006
283
root  -30.8499 31.8001 21.5086 173.761 -15.3919 173.468
RightUpLeg  -42.5799 -1.20274 -2.99391
RightLeg  77.9362 -2.2261 -13.8414
RightFoot  -23.6383 -0.650686 -4.54441
RightToes  0.000482159 0.542163 -0.142577
Spine  54.6279 -0.687498 -0.906314
Spine1  -7.59764 0.316955 -14.4724
HEad  -66.6046 -43.9573 33.5546
LeftShoulder1  5.18132 -10.27 -31.573
LeftArm  -46.3225 54.8793 -19.2714
LeftForeArm  63.722 -75.5916 -37.7193
LeftHand  -0.25398 0.0180481 5.50724
RightShoulder  6.64689 10.6329 40.8322
RightArm  37.2785 54.2033 70.9738
RightForeArm  33.9632 68.428 25.8012
RightHand  -1.15689 3.07116 -16.0422
LeftUpLeg  -29.5293 14.3674 29.594
LeftLeg  35.3904 -3.07767 -2.03903
LeftFoot  -3.05876 0.924254 -12.499
LeftToes  1.06246e-005 4.65855e-005 -8.18502e-006
284
root  -32.8668 31.5717 21.4901 173.023 -13.3043 174.395
RightUpLeg  -41.9758 0.53073 -5.92389
RightLeg  79.1002 -1.65481 -12.1653
RightFoot  -24.4213 -0.370585 -1.78476
RightToes  0.000482159 0.542163 -0.142577
Spine  54.3383 -0.792137 -1.66031
Spine1  -6.92451 0.230278 -16.1187
HEad  -64.4349 -46.0068 33.837
LeftShoulder1  5.14563 -10.3779 -31.0215
LeftArm  -46.0648 49.7005 -18.035
LeftForeArm  89.2777 -79.8847 -60.0613
LeftHand  -0.25398 0.0180481 5.50724
RightShoulder  6.61411 10.9481 39.6458
RightArm  43.0377 50.6862 75.6724
RightForeArm  49.2379 74.1247 36.1917
RightHand  -0.851325 1.88118 -13.7161
LeftUpLeg  -27.7213 11.5324 30.1923
LeftLeg  31.4478 -3.96769 -2.29104
LeftFoot  -0.723417 1.32275 -14.0298
LeftToes  1.06246e-005 4.65855e-005 -8.18502e-006
285
root  -34.9478 31.1656 21.5485 171.564 -11.8661 175.71
RightUpLeg  -41.0677 2.25059 -8.75144
RightLeg  80.4927 -1.14941 -10.7337
RightFoot  -25.2352 -0.148167 0.183744
RightToes  0.000482159 0.542163 -0.142577
Spine  54.5206 -0.489034 -2.90995
Spine1  -6.47315 -0.1097 -15.0433
HEad  -61.5829 -48.234 33.3916
LeftShoulder1  5.33762 -10.8725 -31.0786
LeftArm  -46.0391 44.1085 -17.2072
LeftForeArm  123.069 -81.3378 -91.7572
LeftHand  -0.25398 0.0180481 5.50724
RightShoulder  6.41976 11.1909 37.656
RightArm  45.4329 46.916 76.0073
RightForeArm  75.0186 78.9496 56.818
RightHand  -0.65506 1.30494 -11.5745
LeftUpLeg  -28.6578 8.49719 30.3024
LeftLeg  36.5081 -5.22142 -3.79563
LeftFoot  0.712886 2.0557 -19.4409
LeftToes  1.06246e-005 4.65855e-005 -8.18502e-006
286
root  -37.0231 30.7744 21.5691 170.291 -10.7345 177.255
RightUpLeg  -40.1564 4.09701 -11.3549
RightLeg  81.3861 -0.867385 -9.86515
RightFoot  -25.8743 0.100537 2.17041
RightToes  0.000482159 0.542163 -0.142577
Spine  54.8026 0.495757 -4.43941
Spine1  -6.1522 -0.392725 -11.3584
HEad  -60.0173 -50.41 33.755
LeftShoulder1  5.64025 -11.4795 -31.6035
LeftArm  -45.3272 36.496 -15.6927
LeftForeArm  141.011 -80.9077 -108.771
LeftHand  -0.25398 0.0180481 5.50724
RightShoulder  6.38743 11.5469 36.4411
RightArm  44.7612 43.4718 72.1503
RightForeArm  109.435 80.8746 88.7064
RightHand  -0.858958 2.83045 -12.2677
LeftUpLeg  -31.1586 5.49144 30.8159
LeftLeg  44.8679 -5.38353 -5.30549
LeftFoot  -0.972453 2.41633 -26.2334
LeftToes  1.06246e-005 4.65855e-005 -8.18502e-006
287
root  -38.7439 30.7374 21.5736 170.101 -10.1351 178.194
RightUpLeg  -39.1261 6.11182 -13.756
RightLeg  80.3496 -1.07068 -9.95998
RightFoot  -25.675 0.318402 3.92372
RightToes  0.000482159 0.542163 -0.142577
Spine  54.8601 1.96022 -6.76442
Spine1  -5.79763 -0.507849 -8.53011
HEad  -59.9275 -51.5431 34.7151
LeftShoulder1  5.78608 -12.0281 -31.214
LeftArm  -43.6882 26.8636 -13.7203
LeftForeArm  140.324 -81.0951 -106.051
LeftHand  -0.25398 0.0180481 5.50724
RightShoulder  6.75033 12.0412 37.3901
RightArm  41.8228 39.5107 65.3482
RightForeArm  127.884 80.3942 108.022
RightHand  -1.35208 4.96927 -15.4334
LeftUpLeg  -33.9264 4.65424 30.1305
LeftLeg  51.6202 -4.75831 -5.95716
LeftFoot  -4.56637 1.67778 -27.1283
LeftToes  1.06246e-005 4.65855e-005 -8.18502e-006
288
root  -40.0769 31.0656 21.6224 170.698 -10.2951 178.947
RightUpLeg  -37.8126 7.7366 -15.4088
RightLeg  77.5407 -1.72932 -10.7268
RightFoot  -24.7033 0.386472 4.72428
RightToes  0.000482159 0.542163 -0.142577
Spine  54.8715 3.05134 -9.26677
Spine1  -5.84997 -0.908004 -7.44975
HEad  -59.6033 -51.0328 33.858
LeftShoulder1  5.7022 -12.4292 -29.7276
LeftArm  -41.6596 17.7941 -12.5295
LeftForeArm  128.546 -81.5478 -91.33
LeftHand  -0.25398 0.0180481 5.50724
RightShoulder  7.30237 12.5209 39.4539
RightArm  38.4951 34.4413 58.58
RightForeArm  120.598 80.464 103.044
RightHand  -1.6938 5.62344 -18.1391
LeftUpLeg  -36.075 5.49499 28.2549
LeftLeg  54.993 -4.02901 -5.68094
LeftFoot  -7.16365 0.905591 -23.46
LeftToes  1.06246e-005 4.65855e-005 -8.18502e-006
289
root  -41.2753 31.5611 21.662 171.358 -10.9609 -179.645
RightUpLeg  -36.0603 8.53932 -15.989
RightLeg  73.8976 -2.66081 -11.4988
RightFoot  -23.4339 0.341754 4.72091
RightToes  0.000482159 0.542163 -0.142577
Spine  54.9441 3.52576 -11.028
Spine1  -6.42324 -1.69703 -5.65744
HEad  -59.464 -49.536 32.0786
LeftShoulder1  5.61136 -12.5777 -28.8157
LeftArm  -39.3459 11.1455 -12.3051
LeftForeArm  114.432 -81.3514 -75.5888
LeftHand  -0.25398 0.0180481 5.50724
RightShoulder  7.72666 12.9864 40.6743
RightArm  35.7766 29.0517 53.7376
RightForeArm  91.7275 80.2973 76.1323
RightHand  -1.83643 5.49047 -19.7977
LeftUpLeg  -37.4763 5.83547 26.7774
LeftLeg  55.9968 -3.6006 -5.22819
LeftFoot  -7.8161 0.689195 -20.7643
LeftToes  1.06246e-005 4.65855e-005 -8.18502e-006
290
root  -42.4133 32.1952 21.6285 172.028 -11.5401 -177.948
RightUpLeg  -33.8954 8.78076 -15.9687
RightLeg  69.4817 -3.78689 -11.9088
RightFoot  -21.8986 0.279271 4.62815
RightToes  0.000482159 0.542163 -0.142577
Spine  54.815 3.96429 -12.1612
Spine1  -7.1204 -2.30106 -2.75887
HEad  -59.0597 -46.8454 30.3164
LeftShoulder1  5.73076 -12.5916 -29.5409
LeftArm  -36.3346 6.36908 -12.3931
LeftForeArm  104.526 -80.8265 -66.012
LeftHand  -0.25398 0.0180481 5.50724
RightShoulder  7.96664 13.4311 40.8445
RightArm  32.9086 23.9654 50.1638
RightForeArm  61.2237 77.251 47.6442
RightHand  -2.43774 7.10698 -22.6669
LeftUpLeg  -38.2683 5.3771 26.0542
LeftLeg  55.9033 -3.29578 -4.72594
LeftFoot  -7.56471 0.71057 -20.0092
LeftToes  1.06246e-005 4.65855e-005 -8.18502e-006
